<svg xmlns="http://www.w3.org/2000/svg" xmlns:xlink="http://www.w3.org/1999/xlink" width="200" zoomAndPan="magnify" viewBox="0 0 150 149.999998" height="200" preserveAspectRatio="xMidYMid meet" version="1.0"><defs><clipPath id="5c2d47efad"><path d="M 1.015625 1 L 148.410156 1 L 148.410156 148.765625 L 1.015625 148.765625 Z M 1.015625 1 " clip-rule="nonzero"/></clipPath><clipPath id="d1ff2c1291"><path d="M 36.839844 1.371094 L 113.160156 1.371094 C 122.507812 1.371094 131.472656 5.085938 138.085938 11.695312 C 144.695312 18.308594 148.410156 27.273438 148.410156 36.621094 L 148.410156 113.378906 C 148.410156 122.726562 144.695312 131.691406 138.085938 138.304688 C 131.472656 144.914062 122.507812 148.628906 113.160156 148.628906 L 36.839844 148.628906 C 27.492188 148.628906 18.527344 144.914062 11.914062 138.304688 C 5.304688 131.691406 1.589844 122.726562 1.589844 113.378906 L 1.589844 36.621094 C 1.589844 27.273438 5.304688 18.308594 11.914062 11.695312 C 18.527344 5.085938 27.492188 1.371094 36.839844 1.371094 Z M 36.839844 1.371094 " clip-rule="nonzero"/></clipPath><clipPath id="0f60ccba30"><path d="M 0.441406 0.199219 L 147.410156 0.199219 L 147.410156 147.765625 L 0.441406 147.765625 Z M 0.441406 0.199219 " clip-rule="nonzero"/></clipPath><clipPath id="4568764e5e"><path d="M 35.839844 0.371094 L 112.160156 0.371094 C 121.507812 0.371094 130.472656 4.085938 137.085938 10.695312 C 143.695312 17.308594 147.410156 26.273438 147.410156 35.621094 L 147.410156 112.378906 C 147.410156 121.726562 143.695312 130.691406 137.085938 137.304688 C 130.472656 143.914062 121.507812 147.628906 112.160156 147.628906 L 35.839844 147.628906 C 26.492188 147.628906 17.527344 143.914062 10.914062 137.304688 C 4.304688 130.691406 0.589844 121.726562 0.589844 112.378906 L 0.589844 35.621094 C 0.589844 26.273438 4.304688 17.308594 10.914062 10.695312 C 17.527344 4.085938 26.492188 0.371094 35.839844 0.371094 Z M 35.839844 0.371094 " clip-rule="nonzero"/></clipPath><clipPath id="cd36ef9fb7"><rect x="0" width="148" y="0" height="148"/></clipPath><clipPath id="09b14e78bc"><path d="M 49 21 L 101 21 L 101 129.679688 L 49 129.679688 Z M 49 21 " clip-rule="nonzero"/></clipPath><clipPath id="b2afd776de"><path d="M 92 20.179688 L 102 20.179688 L 102 31 L 92 31 Z M 92 20.179688 " clip-rule="nonzero"/></clipPath><clipPath id="3ecb6ad940"><path d="M 50 123 L 61 123 L 61 129.679688 L 50 129.679688 Z M 50 123 " clip-rule="nonzero"/></clipPath></defs><g clip-path="url(#5c2d47efad)"><g clip-path="url(#d1ff2c1291)"><g transform="matrix(1, 0, 0, 1, 1, 1)"><g clip-path="url(#cd36ef9fb7)"><g clip-path="url(#0f60ccba30)"><g clip-path="url(#4568764e5e)"><path fill="#006073" d="M 0.589844 0.371094 L 147.410156 0.371094 L 147.410156 147.765625 L 0.589844 147.765625 Z M 0.589844 0.371094 " fill-opacity="1" fill-rule="nonzero"/></g></g></g></g></g></g><g clip-path="url(#09b14e78bc)"><path fill="#feb602" d="M 93.246094 21.292969 C 94.859375 21.179688 96.476562 21.191406 98.089844 21.320312 C 99.199219 22.109375 99.9375 23.132812 100.753906 24.203125 C 100.792969 25.402344 100.882812 26.648438 100.796875 27.84375 C 100.644531 29.976562 99.71875 31.949219 98.570312 33.722656 C 92.949219 42.417969 79.929688 45.507812 70.925781 49.652344 C 68.976562 50.550781 66.820312 51.367188 65.207031 52.8125 C 67.953125 52.542969 93.132812 52.390625 94.496094 52.785156 C 95.015625 52.933594 95.476562 53.339844 95.675781 53.84375 C 95.851562 54.292969 95.746094 54.804688 95.480469 55.195312 C 95.199219 55.613281 94.890625 55.808594 94.40625 55.910156 C 91.980469 56.4375 88.394531 56.074219 85.855469 56.074219 L 68.085938 56.046875 C 65.957031 56.035156 63.265625 55.703125 61.234375 56.234375 C 60.945312 56.433594 60.8125 56.574219 60.644531 56.894531 C 60.070312 57.980469 60.246094 59.203125 60.628906 60.304688 C 61.058594 60.78125 61.519531 60.882812 62.136719 60.980469 C 64.128906 61.292969 66.417969 61.066406 68.441406 61.058594 L 84.910156 61.058594 C 87.585938 61.050781 90.363281 60.847656 93.027344 61.027344 C 93.625 61.066406 94.488281 61.15625 95.007812 61.484375 C 95.453125 61.769531 95.679688 62.144531 95.789062 62.660156 C 95.875 63.070312 95.75 63.484375 95.460938 63.789062 C 94.976562 64.300781 94.027344 64.453125 93.359375 64.511719 C 90.484375 64.789062 87.308594 64.496094 84.402344 64.503906 C 77.914062 64.511719 71.421875 64.621094 64.945312 64.359375 C 73.074219 69.582031 83.179688 71.53125 91.472656 76.765625 C 95.550781 79.335938 99.730469 83.4375 100.691406 88.351562 C 100.882812 89.332031 100.859375 90.375 100.851562 91.371094 C 100.746094 104.316406 84.277344 109.359375 74.453125 113.300781 C 73.039062 113.863281 71.691406 114.570312 70.308594 115.191406 C 68.941406 115.800781 66.433594 116.570312 65.59375 117.839844 C 66.882812 118.085938 68.761719 117.773438 70.125 117.765625 L 86.730469 117.796875 C 88.976562 117.808594 91.386719 117.558594 93.601562 117.746094 C 94.179688 117.792969 94.816406 117.945312 95.25 118.34375 C 95.59375 118.65625 95.792969 119.160156 95.753906 119.621094 C 95.597656 121.558594 92.910156 121.28125 91.546875 121.277344 C 88.257812 121.261719 62.183594 120.925781 61.109375 121.496094 C 60.125 122.019531 60.320312 124.863281 59.78125 125.921875 C 59.085938 127.28125 57.78125 128.183594 56.621094 129.121094 C 55.71875 129.355469 54.777344 129.273438 53.851562 129.257812 C 52.390625 127.976562 50.617188 126.976562 50.195312 124.933594 C 49.964844 123.8125 50.0625 122.597656 50.175781 121.46875 C 51.300781 110.398438 67.273438 105.222656 76.023438 101.722656 C 77.960938 100.945312 79.824219 100.046875 81.714844 99.160156 C 82.738281 98.675781 84.625 98.097656 85.257812 97.109375 L 85.171875 96.972656 C 79.816406 97.347656 74.339844 97.085938 68.964844 97.101562 C 65.839844 97.101562 59.132812 97.492188 56.367188 96.851562 C 55.828125 96.722656 55.578125 96.632812 55.292969 96.140625 C 55.058594 95.730469 55.046875 95.242188 55.238281 94.8125 C 55.46875 94.304688 55.925781 93.945312 56.460938 93.796875 C 58.589844 93.183594 61.722656 93.597656 63.964844 93.601562 C 66.367188 93.605469 88.578125 93.914062 89.597656 93.367188 C 90.0625 93.125 90.3125 92.445312 90.410156 91.960938 C 90.632812 90.90625 90.507812 89.953125 89.925781 89.046875 C 89.613281 88.800781 89.363281 88.722656 88.976562 88.675781 C 86.742188 88.402344 84.238281 88.628906 81.972656 88.632812 L 65.976562 88.660156 C 63.117188 88.671875 60.035156 88.910156 57.199219 88.609375 C 56.464844 88.535156 55.773438 88.394531 55.34375 87.730469 C 55.09375 87.351562 55.035156 86.902344 55.175781 86.472656 C 55.351562 85.953125 55.785156 85.578125 56.296875 85.410156 C 58.109375 84.816406 63.09375 85.195312 65.175781 85.191406 L 80.953125 85.183594 C 82.035156 85.195312 84.351562 85.585938 85.292969 85.203125 C 84.792969 84.375 83.238281 83.851562 82.375 83.429688 C 80.5625 82.546875 78.746094 81.628906 76.878906 80.867188 C 68.269531 77.339844 56.152344 73.890625 51.542969 65.074219 C 49.847656 61.839844 49.523438 57.480469 50.664062 54.015625 C 53.925781 44.136719 67.585938 40.007812 76.308594 36.410156 C 79.550781 35.078125 82.691406 33.53125 85.820312 31.960938 C 81.4375 31.703125 56.894531 32.632812 55.453125 31.308594 C 55.148438 31.027344 55.019531 30.671875 55.078125 30.257812 C 55.34375 28.332031 57.75 28.363281 59.164062 28.417969 C 61.609375 28.515625 88.875 28.714844 89.683594 28.136719 C 90.902344 27.269531 90.226562 23.144531 93.242188 21.308594 Z M 93.246094 21.292969 " fill-opacity="1" fill-rule="nonzero"/></g><g clip-path="url(#b2afd776de)"><path fill="#feb602" d="M 92.414062 21.945312 C 92.414062 21.945312 95.328125 18.703125 99.1875 21.007812 C 102.78125 23.144531 100.035156 30.976562 100.035156 30.976562 L 96.035156 26.089844 L 92.6875 22.6875 " fill-opacity="1" fill-rule="nonzero"/></g><g clip-path="url(#3ecb6ad940)"><path fill="#feb602" d="M 50.058594 123.445312 C 50.058594 123.445312 49.886719 128.871094 54.667969 129.617188 C 59.449219 130.367188 60.175781 124.242188 60.175781 124.242188 " fill-opacity="1" fill-rule="nonzero"/></g></svg>